# xmcd
#
# Track frame offsets:
#	150
#	11070
#	24219
#	35125
#	45585
#	57313
#	67996
#	78554
#	91006
#	103458
#	115005
#	125702
#
# Disc length: 1811 seconds
#
# Revision: 0
# Processed by: cddbd v1.5.2PL0 Copyright (c) Steve Scherf et al.
# Submitted via: EasyCDDAExtractor 15.2.5.1
#
DISCID=9b07110c
DTITLE=Homer and Jethro - Homer and Jethro's Next Album
DYEAR=2009
DGENRE=Comedy
TTITLE0=There Ain't A Chicken Safe In Tennessee
TTITLE1=The Gal From Possum Holler
TTITLE2=I Ain't Got A Worry In The World
TTITLE3=Little Arrows
TTITLE4=D-I-V-O-R-C-E (B-A-C-O-N and E-G-G-S)
TTITLE5=What Have You Done For Me Lately
TTITLE6=I Upped My Income (Up Yours)
TTITLE7=Cab Driver
TTITLE8=I Haven't The Foggiest
TTITLE9=Pennsylvania Turnpike, I Love You
TTITLE10=Like Mother Used To Make
TTITLE11=You Know A Thousand Ways
EXTD=
EXTT0=
EXTT1=
EXTT2=
EXTT3=
EXTT4=
EXTT5=
EXTT6=
EXTT7=
EXTT8=
EXTT9=
EXTT10=
EXTT11=
PLAYORDER=
